#!OML:ASF F:\VICON\USERDATA\INSTALL\rory3\rory3.ASF
:FULLY-SPECIFIED
:DEGREES
800
root -3.33198 17.1969 8.12131 14.4972 -4.94623 -1.40491
lowerback -2.78887 -1.36247 5.65554
upperback -5.0292 -1.84077 0.379974
thorax -3.8109 -1.12792 -2.75759
lowerneck -14.8193 -3.32342 -7.06252
upperneck 25.4968 -3.29579 1.53871
head 10.823 -2.02132 1.29369
rclavicle -8.63471e-016 4.96962e-015
rhumerus -42.4224 7.7065 -86.8477
rradius 46.6475
rwrist 9.28377
rhand -25.7282 -45.5026
rfingers 7.12502
rthumb 0.808256 -75.4808
lclavicle -8.63471e-016 4.96962e-015
lhumerus -44.7754 -13.3712 81.1777
lradius 64.7864
lwrist 0.952522
lhand -32.0011 -39.9792
lfingers 7.12502
lthumb -5.24979 -10.0642
rfemur -31.3882 3.38138 26.8094
rtibia 40.7383
rfoot -15.1507 -10.6442
rtoes -6.87427
lfemur -73.1312 17.067 -10.9487
ltibia 130.089
lfoot -18.5748 -2.59086
ltoes -5.97545
801
root -3.3633 17.0127 8.10455 14.1662 -5.23813 -1.38172
lowerback -2.3134 -1.36036 5.4142
upperback -4.83652 -1.80901 0.488384
thorax -3.8602 -1.09747 -2.5017
lowerneck -14.8944 -3.36207 -6.97897
upperneck 24.8792 -3.29077 1.28338
head 10.6034 -2.03078 1.18751
rclavicle -9.33046e-015 9.93923e-015
rhumerus -42.3684 8.01 -86.8636
rradius 47.1159
rwrist 9.51047
rhand -27.0249 -45.7416
rfingers 7.12502
rthumb -0.444184 -75.7209
lclavicle -9.33046e-015 9.93923e-015
lhumerus -44.1322 -12.7395 81.029
lradius 65.0342
lwrist 0.572562
lhand -31.5873 -41.2087
lfingers 7.12502
lthumb -4.85021 -11.2842
rfemur -32.2642 3.0061 27.3136
rtibia 42.9421
rfoot -17.8274 -11.7997
rtoes -5.02285
lfemur -72.784 17.0354 -10.8673
ltibia 129.544
lfoot -18.672 -2.83241
ltoes -7.33341
802
root -3.38996 16.8116 8.08232 13.8597 -5.82968 -1.45415
lowerback -1.65396 -1.25483 5.22875
upperback -4.68669 -1.62822 0.579708
thorax -4.0505 -0.999352 -2.29299
lowerneck -15.1827 -3.26834 -6.87213
upperneck 24.489 -3.13687 1.20131
head 10.5049 -1.95167 1.1582
rclavicle 2.97804e-014 -1.05356e-014
rhumerus -42.1229 8.37712 -86.8424
rradius 47.5118
rwrist 10.5213
rhand -26.7402 -48.77
rfingers 7.12502
rthumb -0.169167 -78.7497
lclavicle 2.97804e-014 -1.05356e-014
lhumerus -43.4513 -12.2867 80.7899
lradius 65.1107
lwrist 0.203931
lhand -32.1955 -42.4695
lfingers 7.12502
lthumb -5.43753 -12.5593
rfemur -32.8714 3.23838 27.7763
rtibia 45.153
rfoot -19.8132 -13.4244
rtoes -4.48259
lfemur -72.4524 17.6567 -10.6816
ltibia 129.183
lfoot -19.2073 -3.20138
ltoes -8.22288
803
root -3.41822 16.6447 8.05856 13.9309 -7.22926 -1.69312
lowerback -1.31055 -0.823392 5.0478
upperback -4.64786 -1.03083 0.654241
thorax -4.14958 -0.694367 -2.1237
lowerneck -15.1869 -3.11607 -6.82649
upperneck 24.0744 -2.94509 1.25714
head 10.3447 -1.84562 1.19716
rclavicle -2.5109e-014 -6.55989e-015
rhumerus -41.6886 8.86257 -86.8296
rradius 47.3445
rwrist 11.3503
rhand -26.646 -50.8611
rfingers 7.12502
rthumb -0.0781983 -80.8408
lclavicle -2.5109e-014 -6.55989e-015
lhumerus -42.8848 -11.8107 80.5191
lradius 65.1794
lwrist -0.42639
lhand -32.4625 -43.3864
lfingers 7.12502
lthumb -5.69531 -13.4829
rfemur -34.0261 4.52548 28.0196
rtibia 47.2395
rfoot -20.7538 -14.6062
rtoes -5.24756
lfemur -72.1549 19.3584 -10.6001
ltibia 128.673
lfoot -19.7866 -3.83574
ltoes -7.97745
